<svg width="230" height="230" viewBox="0 0 230 230" fill="none" xmlns="http://www.w3.org/2000/svg">
<g clip-path="url(#clip0)">
<path d="M94.3203 68.0798C94.3203 68.0798 92.7391 72.9673 92.1641 74.5485C91.4453 76.7048 92.8828 77.4235 94.3203 77.4235H95.7578M117.32 67.3611C113.008 67.3611 110.133 64.4861 107.258 61.611C104.383 58.736 101.508 55.861 96.4766 55.861C91.3016 55.861 87.1328 60.0298 87.1328 65.2048V79.5798C87.1328 85.4735 92.0203 90.2892 97.9141 90.361C109.27 90.5048 118.398 80.011 118.758 74.1173C118.83 72.6079 117.68 71.0985 116.17 70.9548C114.445 70.811 113.008 72.1048 113.008 73.8298V89.6423C113.008 92.8048 115.595 95.3923 118.758 95.3923H120.986C125.586 95.3923 129.97 97.1173 133.277 100.28L142.189 108.833C142.764 109.336 143.627 109.336 144.202 108.833L161.883 91.7985C161.883 85.186 168.136 81.5923 171.155 80.2267C172.017 79.7954 173.095 80.0111 173.814 80.7298C174.748 81.6642 174.748 83.2454 173.67 84.1798L169.789 87.5579C171.873 91.0798 171.227 97.3329 166.555 100.28C166.339 100.424 166.195 100.639 166.195 100.855V106.174C166.195 106.964 166.842 107.611 167.633 107.611H197.102M84.2578 59.4548C84.2578 53.1298 89.4328 47.9548 95.7578 47.9548C99.3516 47.9548 107.977 47.9548 107.977 47.9548C115.883 47.9548 122.352 54.4235 122.352 62.3298V67.3611M125.945 195.299H97.1953C96.4047 195.299 95.7578 194.652 95.7578 193.861V186.674C95.7578 185.883 96.4047 185.236 97.1953 185.236H111.57C116.314 185.236 120.195 181.355 120.195 176.611V146.424C120.195 141.68 116.314 137.799 111.57 137.799H65.5703C60.8266 137.799 56.9453 141.68 56.9453 146.424V176.611C56.9453 181.355 60.8266 185.236 65.5703 185.236H79.9453C80.7359 185.236 81.3828 185.883 81.3828 186.674V193.861C81.3828 194.652 80.7359 195.299 79.9453 195.299H56.2266C37.1797 195.299 21.7266 179.845 21.7266 160.799C21.7266 141.752 37.1797 126.299 56.2266 126.299H141.039M125.945 195.299L138.452 170.358C141.398 164.536 147.364 160.799 153.905 160.799H159.439C161.595 160.799 163.392 159.002 163.392 156.845C163.392 154.689 161.595 152.892 159.439 152.892H155.414C151.82 152.892 149.017 149.874 149.017 146.28V140.674C149.017 139.883 148.37 139.236 147.58 139.236H146.142C144.705 139.236 142.548 138.517 143.986 134.205L146.142 127.736C149.089 118.967 154.767 114.799 163.392 114.799C172.952 114.799 180.642 122.489 180.642 132.049C180.642 139.236 177.767 141.392 177.767 150.017M125.945 195.299C123.286 200.617 126.664 204.642 130.258 204.642C132.27 204.642 133.852 203.061 133.852 201.049C133.852 198.174 130.977 195.299 125.945 195.299ZM37.5391 126.299H27.4766C24.3141 126.299 21.7266 123.711 21.7266 120.549V96.8298C21.7266 93.6673 24.3141 91.0798 27.4766 91.0798H59.1016C62.2641 91.0798 64.8516 93.6673 64.8516 96.8298V115.517C72.0391 115.517 77.7891 95.3923 95.0391 95.3923H97.9141M166.195 77.4235V61.611C166.195 60.8204 166.842 60.1735 167.633 60.1735H190.777C191.136 60.1735 191.495 60.3173 191.783 60.6048L199.545 68.3673C199.833 68.6548 199.977 69.0142 199.977 69.3735V83.1735M190.633 60.8923V69.5173H199.258M169.861 140.674C172.305 140.674 174.245 138.661 174.173 136.217C174.102 133.845 172.017 132.049 169.717 132.049H167.777C166.842 132.049 165.908 131.689 165.261 130.97L164.183 129.892C162.889 128.599 162.53 126.586 163.392 124.933L164.542 122.633C165.045 121.699 164.327 120.549 163.248 120.549H156.205M177.695 150.017C177.695 155.983 182.511 160.799 188.477 160.799C197.102 160.799 208.602 149.299 208.602 129.174C208.602 116.811 203.355 104.449 192.861 93.3079C192.07 92.4454 192.07 91.0798 192.933 90.2892C193.723 89.4986 194.945 89.4267 195.808 90.0736L200.048 93.236V83.1735C204.792 83.1735 208.673 87.0548 208.673 91.7985V97.5486M61.9766 60.1735C61.9766 58.161 61.0422 57.2985 59.8203 57.2985C58.4547 57.2985 57.3766 58.4485 57.7359 61.1079C58.3109 65.7798 62.3359 69.1579 67.0078 69.5173C68.3734 69.5892 69.3797 69.4454 70.4578 69.086C71.5359 68.6548 71.6797 67.2173 70.6734 66.5704C69.3078 65.636 68.4453 64.1267 68.4453 62.4017C68.4453 59.3829 71.4641 56.8673 72.4703 51.1173C74.6266 38.611 65.7859 26.8954 53.1359 25.8173C39.1203 24.5954 27.6203 36.7423 29.9203 50.9017C31.4297 60.0298 39.6953 68.1517 50.4766 68.1517C57.6641 68.0798 61.9766 63.7673 61.9766 60.1735Z" stroke="black" stroke-width="1.79688" stroke-miterlimit="10" stroke-linecap="round" stroke-linejoin="round"/>
<path d="M101.508 70.9551C102.302 70.9551 102.945 70.3115 102.945 69.5176C102.945 68.7237 102.302 68.0801 101.508 68.0801C100.714 68.0801 100.07 68.7237 100.07 69.5176C100.07 70.3115 100.714 70.9551 101.508 70.9551Z" fill="black"/>
<path d="M152.539 131.33C153.333 131.33 153.977 130.686 153.977 129.893C153.977 129.099 153.333 128.455 152.539 128.455C151.745 128.455 151.102 129.099 151.102 129.893C151.102 130.686 151.745 131.33 152.539 131.33Z" fill="black"/>
<path d="M45.4453 48.6738C46.2392 48.6738 46.8828 48.0302 46.8828 47.2363C46.8828 46.4424 46.2392 45.7988 45.4453 45.7988C44.6514 45.7988 44.0078 46.4424 44.0078 47.2363C44.0078 48.0302 44.6514 48.6738 45.4453 48.6738Z" fill="black"/>
<path d="M51.1953 48.6738C51.9892 48.6738 52.6328 48.0302 52.6328 47.2363C52.6328 46.4424 51.9892 45.7988 51.1953 45.7988C50.4014 45.7988 49.7578 46.4424 49.7578 47.2363C49.7578 48.0302 50.4014 48.6738 51.1953 48.6738Z" fill="black"/>
<path d="M56.9453 48.6738C57.7392 48.6738 58.3828 48.0302 58.3828 47.2363C58.3828 46.4424 57.7392 45.7988 56.9453 45.7988C56.1514 45.7988 55.5078 46.4424 55.5078 47.2363C55.5078 48.0302 56.1514 48.6738 56.9453 48.6738Z" fill="black"/>
</g>
<defs>
<clipPath id="clip0">
<rect width="230" height="230" fill="white"/>
</clipPath>
</defs>
</svg>
