<svg width="610" height="610" viewBox="0 0 610 610" fill="none" xmlns="http://www.w3.org/2000/svg">
<path d="M248.405 428.016H144.197C89.2967 428.016 42.0217 385.316 40.4967 330.416C38.4634 272.466 84.7217 225.191 142.163 225.191C150.805 225.191 158.938 226.208 167.072 228.241C183.847 156.566 248.405 103.191 325.163 103.191C415.138 103.191 487.83 175.883 487.83 265.858C534.088 265.858 571.197 304.491 569.163 351.258C567.13 394.975 529.513 428.525 485.797 428.525H356.172C350.58 428.525 346.005 433.1 346.005 438.691V499.691C346.005 516.466 332.28 530.191 315.505 530.191C298.73 530.191 285.005 516.466 285.005 499.691V265.858M222.988 326.35L283.988 265.35L344.988 326.35M487.322 265.35C426.322 265.35 405.988 306.016 426.322 326.35C446.655 346.683 487.322 326.35 487.322 265.35Z" stroke="black" stroke-width="2.5" stroke-miterlimit="10" stroke-linecap="round" stroke-linejoin="round"/>
</svg>
