<svg width="81" height="81" viewBox="0 0 81 81" fill="none" xmlns="http://www.w3.org/2000/svg">
<path d="M74.891 15.6179L64.6141 38.9813C64.1585 40.0445 62.8929 40.5001 61.8551 39.9685L50.2366 34.1466C49.9329 33.9948 49.5532 34.1973 49.5026 34.5516L48.6926 41.791C48.642 42.2213 49.1482 42.5251 49.5026 42.2466L54.641 38.3991M52.616 29.7929L73.6001 13.3651C74.0557 13.0107 73.676 12.302 73.1191 12.4791L36.8716 24.5785C35.5807 25.0088 35.4541 26.7807 36.6691 27.3882L45.1235 31.6154C45.3766 31.742 45.5791 31.9951 45.6551 32.2735L47.3257 38.9054M42.491 43.9679C36.416 52.0679 27.8098 58.1429 20.216 58.1429C14.622 58.1429 10.091 53.612 10.091 48.0179C10.091 42.4238 14.622 37.8929 20.216 37.8929C25.8101 37.8929 30.341 42.4238 30.341 48.0179C30.341 60.1679 16.166 66.2429 6.04102 68.2679" stroke="black" stroke-width="0.632812" stroke-miterlimit="10" stroke-linecap="round" stroke-linejoin="round"/>
</svg>
