<svg width="187" height="187" viewBox="0 0 187 187" fill="none" xmlns="http://www.w3.org/2000/svg">
<path d="M78.7412 139.198L75.644 143.873C74.7675 145.218 73.0143 145.685 71.6118 144.925C70.3262 144.283 69.625 142.88 69.9172 141.478L70.3847 139.198M78.5659 120.498H109.012C110.297 120.498 111.349 121.55 111.349 122.836V124.18C111.349 124.823 111.116 125.407 110.648 125.816L109.83 126.634C109.362 127.102 109.362 127.803 109.83 128.271L112.167 130.608C113.161 131.602 113.804 132.829 114.096 134.173L115.557 141.419C115.849 142.822 115.148 144.224 113.862 144.867C112.401 145.568 110.707 145.101 109.83 143.815L104.571 135.984C103.694 134.699 102.233 133.881 100.655 133.881H98.4931C97.8503 133.881 97.3243 134.407 97.3243 135.049V137.971C97.3243 138.614 96.7984 139.14 96.1556 139.14H65.3006C57.47 139.14 52.3859 130.9 55.8922 123.946L64.6578 106.415M84.4681 66.21C85.9875 69.3072 88.9678 71.4694 92.6494 71.4694C97.4412 71.4694 101.415 67.8463 101.941 63.1713C101.999 62.5869 102.525 62.1194 103.11 62.1194H109.538C113.512 62.1194 117.193 64.3984 118.946 67.9631L126.66 83.3906C128.705 87.4228 127.887 92.3316 124.673 95.5456L113.278 106.941C112.518 107.701 111.291 107.175 111.291 106.123V97.2403C111.291 94.6691 109.187 92.5653 106.616 92.5653H78.5659C75.9947 92.5653 73.8909 94.6691 73.8909 97.2403V115.94C73.8909 118.512 75.9947 120.615 78.5659 120.615M120.758 106.473L129.523 124.005C133.03 131.017 127.946 139.198 120.115 139.198H118.946M99.0775 41.6078C99.0775 41.6078 100.363 45.5816 100.831 46.8672C101.415 48.6203 100.246 49.2047 99.0775 49.2047H97.9087M82.1306 39.2703C85.6368 39.2703 87.9743 36.9328 90.3118 34.5953C92.6493 32.2578 94.9869 29.9203 99.0775 29.9203C103.285 29.9203 106.674 33.3097 106.674 37.5172V49.2047C106.674 54.055 102.759 57.9703 97.9087 57.9703C88.5587 57.9703 80.9618 49.2047 80.9618 44.5297C80.9618 43.2441 82.0137 42.1922 83.2993 42.1922C84.585 42.1922 85.6368 43.2441 85.6368 44.5297V57.3859C85.6368 59.9572 83.5331 62.0609 80.9618 62.0609H75.8194C71.8456 62.0609 68.164 64.34 66.4109 67.9047L58.6972 83.3322C56.6518 87.3644 57.47 92.2731 60.684 95.4872L69.625 104.428M109.012 32.8422C109.012 27.6997 104.804 23.4922 99.6619 23.4922C96.74 23.4922 93.8181 23.4922 93.8181 23.4922C84.7603 23.4922 77.4556 30.7969 77.4556 39.8547C74.2415 39.8547 71.6118 42.4844 71.6118 45.6984V50.3734C71.6118 55.0484 71.6118 57.3859 66.9368 59.7234M18.4922 163.742H168.092" stroke="black" stroke-width="1.46094" stroke-miterlimit="10" stroke-linecap="round" stroke-linejoin="round"/>
<path d="M93.8182 44.5289C94.4636 44.5289 94.9869 44.0056 94.9869 43.3602C94.9869 42.7147 94.4636 42.1914 93.8182 42.1914C93.1727 42.1914 92.6494 42.7147 92.6494 43.3602C92.6494 44.0056 93.1727 44.5289 93.8182 44.5289Z" fill="black"/>
</svg>
