<svg width="105" height="105" viewBox="0 0 105 105" fill="none" xmlns="http://www.w3.org/2000/svg">
<path d="M46.7396 32.3216C46.0177 32.4856 45.2958 32.5841 44.5083 32.5841C41.2271 32.5841 39.2583 30.6153 39.2583 28.9747C39.2583 28.0559 39.6849 27.6622 40.2427 27.6622C40.8661 27.6622 41.3583 28.1872 41.1942 29.4012C40.9317 31.5341 39.0942 33.0762 36.9614 33.2403C36.338 33.2731 35.8786 33.2075 35.3864 33.0434C34.9271 32.8137 34.8614 32.1575 35.3208 31.8622C35.9442 31.4356 36.338 30.7466 36.338 29.9591C36.338 28.5809 34.9599 27.4325 34.5005 24.8075C33.5161 19.0981 37.5521 13.7497 43.3271 13.2575C49.7255 12.6997 54.9755 18.245 53.8927 24.7091C53.8927 24.8075 53.8599 24.9059 53.8271 25.0044M28.7583 46.0044L30.0708 49.9419C30.7271 51.9106 30.0708 52.5669 28.7583 52.5669H26.7896C25.313 52.5669 24.0661 53.5512 23.6396 54.8966C23.4755 55.4544 22.9505 55.8481 22.3927 55.8481C20.8505 55.8481 19.5708 54.6012 19.5708 53.0262V46.6606C19.5708 44.495 17.7989 42.7231 15.6333 42.7231H13.6974C13.3036 42.7231 13.0083 42.395 13.0411 42.0341C13.4021 36.4559 18.1271 32.0919 23.8036 32.2559C29.513 32.42 34.0083 37.2434 34.0083 42.9856V54.5356C34.0083 58.8341 30.4974 62.4434 26.1989 62.4762C18.3567 62.5091 11.7942 54.1091 11.6958 48.17C11.663 47.12 12.4177 46.1684 13.4677 46.07C14.6489 45.9387 15.6333 46.8575 15.6333 48.0387C15.6333 48.0387 15.6333 57.2262 15.6333 61.1637C15.6333 65.1012 14.3208 65.1012 10.3833 66.4137L5.46143 68.0544M76.0083 46.0044L74.6958 49.9419C74.0396 51.9106 74.6958 52.5669 76.0083 52.5669H76.6646M89.1333 44.0356C89.1333 44.0356 85.1958 43.3794 85.1958 37.4731C79.7161 42.9528 73.3177 43.8716 71.3489 44.0028C71.0208 44.0356 70.7583 44.2981 70.7583 44.6591V54.47C70.7583 58.7684 74.2692 62.3778 78.5677 62.4106C86.4099 62.4434 92.9724 54.0434 93.0708 48.1044C93.1036 47.0544 92.3489 46.1028 91.2989 46.0044C90.1177 45.8731 89.1333 46.7919 89.1333 47.9731C89.1333 47.9731 89.1333 57.1606 89.1333 61.0981C89.1333 65.0356 90.4458 65.0356 94.3833 66.3481L99.3052 67.9887M91.4302 61.0981H95.6958C96.4177 61.0981 97.0083 60.5075 97.0083 59.7856V42.7231C97.0083 36.1934 91.7255 30.9106 85.1958 30.9106H81.2583C74.3677 30.9106 69.4458 34.8481 69.4458 42.0669M14.6489 67.3325C15.6333 70.5481 18.6521 72.9106 22.1958 72.9106C26.2646 72.9106 29.6114 69.8262 30.038 65.8559C30.0708 65.4294 30.4974 65.1997 30.8911 65.3309L37.9458 67.6934C41.8833 69.0059 47.1333 71.9591 47.1333 78.5216V86.3966C47.1333 89.2841 49.4958 91.6466 52.3833 91.6466C55.2708 91.6466 57.6333 89.2841 57.6333 86.3966V78.5216C57.6333 71.9591 62.8833 69.0059 66.8208 67.6934L73.8755 65.3309C74.2692 65.1997 74.6958 65.4622 74.7286 65.8559C75.1224 69.8262 78.5021 72.9106 82.5708 72.9106C86.1146 72.9106 89.1333 70.5481 90.1177 67.3325M58.027 33.5356V37.8012M58.027 33.5028C58.027 33.2403 57.1411 30.0903 57.1411 30.0903C56.8458 29.3028 55.6974 29.5325 55.6974 30.3528V32.1903C55.6974 32.2887 55.6317 32.3872 55.5005 32.3872H52.8099C52.1864 32.3872 51.6942 32.8794 51.6942 33.5028V35.1762C51.6942 36.62 52.8755 37.7684 54.2864 37.7684H59.4708C60.0942 37.7684 60.5864 37.2762 60.5864 36.6528V34.5856C60.5864 33.9622 60.0942 33.47 59.4708 33.47L58.027 33.5028ZM66.1646 34.52C66.1646 39.9565 61.7574 44.3637 56.3209 44.3637C50.8843 44.3637 46.4771 39.9565 46.4771 34.52C46.4771 29.0834 50.8843 24.6762 56.3209 24.6762C61.7574 24.6762 66.1646 29.0834 66.1646 34.52Z" stroke="black" stroke-width="0.820312" stroke-miterlimit="10" stroke-linecap="round" stroke-linejoin="round"/>
<path d="M46.8381 23.6914C47.2005 23.6914 47.4943 23.3976 47.4943 23.0352C47.4943 22.6727 47.2005 22.3789 46.8381 22.3789C46.4756 22.3789 46.1818 22.6727 46.1818 23.0352C46.1818 23.3976 46.4756 23.6914 46.8381 23.6914Z" fill="black"/>
<path d="M24.8209 47.9727C25.1833 47.9727 25.4771 47.6788 25.4771 47.3164C25.4771 46.954 25.1833 46.6602 24.8209 46.6602C24.4584 46.6602 24.1646 46.954 24.1646 47.3164C24.1646 47.6788 24.4584 47.9727 24.8209 47.9727Z" fill="black"/>
<path d="M79.9459 47.9727C80.3083 47.9727 80.6021 47.6788 80.6021 47.3164C80.6021 46.954 80.3083 46.6602 79.9459 46.6602C79.5834 46.6602 79.2896 46.954 79.2896 47.3164C79.2896 47.6788 79.5834 47.9727 79.9459 47.9727Z" fill="black"/>
<path d="M44.2131 23.6914C44.5755 23.6914 44.8693 23.3976 44.8693 23.0352C44.8693 22.6727 44.5755 22.3789 44.2131 22.3789C43.8506 22.3789 43.5568 22.6727 43.5568 23.0352C43.5568 23.3976 43.8506 23.6914 44.2131 23.6914Z" fill="black"/>
<path d="M41.5881 23.6914C41.9505 23.6914 42.2443 23.3976 42.2443 23.0352C42.2443 22.6727 41.9505 22.3789 41.5881 22.3789C41.2256 22.3789 40.9318 22.6727 40.9318 23.0352C40.9318 23.3976 41.2256 23.6914 41.5881 23.6914Z" fill="black"/>
</svg>
