<svg width="150" height="150" viewBox="0 0 150 150" fill="none" xmlns="http://www.w3.org/2000/svg">
<path d="M119.88 85.875L122.224 90.5625C123.583 93.2344 125.317 94.6406 127.521 94.7812C129.114 94.875 130.614 93.7031 130.661 92.1094C130.755 90.4688 129.442 89.1562 127.849 89.1562C123.161 89.1562 119.88 91.9688 116.599 98.5312L112.052 107.625C111.114 109.547 109.146 110.719 107.036 110.719H96.1143C95.7393 110.719 95.3643 110.578 95.0361 110.391L92.5049 108.609C91.6611 108 90.6299 107.672 89.5986 107.766L86.6455 107.813C85.6143 107.906 84.7705 108.75 84.7705 110.016L84.8174 111C84.9111 112.266 85.5205 113.391 86.4111 114.141C87.1611 114.797 88.0986 115.125 89.083 115.219L90.958 115.359C90.958 115.359 93.6299 118.172 98.458 118.172M132.958 101.344H137.646C142.286 101.344 146.083 97.5469 146.083 92.9062V34.7812C146.083 30.1406 142.286 26.3438 137.646 26.3438H109.521C104.88 26.3438 101.083 30.1406 101.083 34.7812V92.9062C101.083 97.5469 104.88 101.344 109.521 101.344M33.583 116.344H9.20801C6.11426 116.344 3.58301 113.812 3.58301 110.719V64.7812C3.58301 60.1406 7.37988 56.3437 12.0205 56.3437H73.8955C78.5361 56.3437 82.333 60.1406 82.333 64.7812V87.75M119.88 85.9219H116.552C114.208 85.9219 112.38 83.9531 112.38 81.6094V78.8906M90.7705 119.156V121.969C90.7705 122.484 90.3486 122.906 89.833 122.906H69.208C68.6924 122.906 68.2705 122.484 68.2705 121.969V115.406C71.5518 113.531 70.6143 108.844 70.6143 108.844L73.8018 106.688C74.4111 106.313 74.6455 105.563 74.458 104.906C74.1768 104.016 73.1455 103.594 72.3486 104.016L68.083 106.172C67.0518 106.688 66.3018 107.672 66.0674 108.797L65.5049 111.703L55.6143 120.891C53.9268 122.484 51.208 122.156 49.9424 120.234L42.583 109.219C40.4736 106.078 37.0049 104.203 33.208 104.203H27.2549C26.3643 104.203 25.6611 104.813 25.4268 105.656C24.7705 108.047 22.6143 109.828 19.9893 109.828C16.8955 109.828 14.3643 107.297 14.3643 104.203M68.2705 102.75V91.9688C68.2705 91.4531 68.6924 91.0312 69.208 91.0312H84.7705C85.0049 91.0312 85.2393 91.125 85.4268 91.3125L90.4893 96.375C90.6768 96.5625 90.7705 96.7969 90.7705 97.0313V107.438M84.6768 91.5V97.125H90.3018M26.5518 84.9375C26.5518 84.9375 27.583 88.125 27.958 89.1562C28.4268 90.5625 27.4893 91.0312 26.5518 91.0312H24.6768C23.1299 91.0312 21.8643 92.2969 21.8643 93.8438C21.8643 94.3594 21.4424 94.7812 20.9268 94.7812C19.3799 94.7812 18.1143 93.5156 18.1143 91.9688V87.2812C18.1143 85.2187 16.4268 83.5312 14.3643 83.5312H13.4268C12.9111 83.5312 12.4893 83.1094 12.4893 82.5938C12.4893 77.2969 16.8955 73.0312 22.1924 73.2188C27.2549 73.4063 31.2393 77.7188 31.2393 82.8281V93.375C31.2393 97.2187 28.1924 100.359 24.3486 100.406C16.9424 100.5 10.8486 93.6563 10.6143 89.8125C10.5674 88.8281 11.3174 87.8438 12.3018 87.75C13.4268 87.6562 14.3643 88.5 14.3643 89.625V104.156M125.974 78.8438C127.567 78.8438 128.833 77.5313 128.786 75.9375C128.739 74.3906 127.38 73.2188 125.88 73.2188H124.614C124.005 73.2188 123.396 72.9844 122.974 72.5156L122.271 71.8125C121.427 70.9688 121.192 69.6563 121.755 68.5781L122.505 67.0781C122.833 66.4688 122.364 65.7188 121.661 65.7188H117.067M138.021 87.8906C134.646 87 131.13 84.2813 131.13 79.7812C131.13 76.0312 133.005 73.2188 133.005 73.2188M112.333 78.8438C112.333 78.3281 111.911 77.9062 111.396 77.9062H110.458C109.521 77.9062 108.114 77.4375 109.052 74.625L110.458 70.4062C112.38 64.6875 116.083 61.9688 121.708 61.9688C126.771 61.9688 131.083 65.3437 132.489 69.9375C133.239 69.0469 134.224 68.5312 135.302 68.5312C137.646 68.5312 139.521 71.0625 139.521 74.1562C139.521 77.5312 135.771 81.6094 139.005 86.4844C139.474 87.1875 138.817 88.125 137.974 87.8906" stroke="black" stroke-width="1.17188" stroke-miterlimit="10" stroke-linecap="round" stroke-linejoin="round"/>
<path d="M21.8643 86.8125C22.382 86.8125 22.8018 86.3928 22.8018 85.875C22.8018 85.3572 22.382 84.9375 21.8643 84.9375C21.3465 84.9375 20.9268 85.3572 20.9268 85.875C20.9268 86.3928 21.3465 86.8125 21.8643 86.8125Z" fill="black"/>
<path d="M114.677 72.75C115.195 72.75 115.614 72.3303 115.614 71.8125C115.614 71.2947 115.195 70.875 114.677 70.875C114.159 70.875 113.739 71.2947 113.739 71.8125C113.739 72.3303 114.159 72.75 114.677 72.75Z" fill="black"/>
</svg>
