<svg width="148" height="148" viewBox="0 0 148 148" fill="none" xmlns="http://www.w3.org/2000/svg">
<path d="M7.2355 51.1063H20.1855C22.498 53.4188 25.273 54.3438 28.5105 54.3438H44.2355C44.7443 54.3438 45.1605 53.9275 45.1605 53.4188C45.1605 50.875 43.0793 48.7938 40.5355 48.7938H36.5118C35.5405 48.7938 34.5693 48.4238 33.8755 47.73L31.7943 45.6488C30.9155 44.77 30.6843 43.4288 31.2393 42.3188M28.973 29.8313C31.008 27.7963 34.338 27.7963 36.373 29.8313L51.4505 44.9088C51.8205 45.2788 51.8205 45.8338 51.4505 46.2038C49.7855 47.8688 47.0568 47.8688 45.3455 46.2038L24.8105 25.6688C24.0243 24.8825 22.8218 24.8825 22.0355 25.6688C21.2493 26.455 21.2493 27.6575 22.0355 28.4438L39.6105 46.0188M7.2355 37.6938H16.5318C19.4918 37.6938 22.313 36.5375 24.3943 34.4563L26.2443 32.6063M47.9355 54.3438L50.8493 57.2575C51.0343 57.4425 51.3118 57.6275 51.5893 57.72L55.3355 58.9688M55.3355 58.9688L54.0868 55.2225C53.9943 54.945 53.8555 54.7138 53.6243 54.4825L49.7855 50.6438M55.3355 58.9688C59.498 53.8813 67.4993 49.7188 75.6855 49.7188C89.9767 49.7188 101.585 61.3275 101.585 75.6188C101.585 88.5688 93.2605 97.8188 83.0855 97.8188C73.8355 97.8188 66.4355 90.3725 66.4355 81.1688C66.4355 75.0175 70.598 70.0688 75.6855 70.0688C80.773 70.0688 84.9355 75.0175 84.9355 81.1688C84.9355 93.7025 67.638 104.941 62.3655 108.04C61.9493 108.271 62.1343 108.919 62.5968 108.919H84.7967C86.7855 108.919 88.4967 110.399 88.6355 112.388C88.7742 114.561 87.063 116.319 84.9355 116.319H72.1243C70.1355 116.319 68.4243 117.799 68.2855 119.788C68.1468 121.961 69.858 123.719 71.9855 123.719H92.3355M140.435 115.856H127.485C125.173 118.169 122.398 119.094 119.16 119.094H103.435C102.927 119.094 102.51 118.678 102.51 118.169C102.51 115.625 104.592 113.544 107.135 113.544H111.159C112.13 113.544 113.102 113.174 113.796 112.48L115.877 110.399C116.756 109.52 116.987 108.179 116.432 107.069M118.698 94.5813C116.663 92.5463 113.333 92.5463 111.298 94.5813L96.2205 109.659C95.8505 110.029 95.8505 110.584 96.2205 110.954C97.8855 112.619 100.614 112.619 102.326 110.954L122.86 90.4188C123.647 89.6325 124.849 89.6325 125.635 90.4188C126.422 91.205 126.422 92.4075 125.635 93.1938L108.06 110.769M140.435 102.444H131.139C128.179 102.444 125.358 101.288 123.277 99.2063L121.427 97.3563M99.7355 119.094L96.8217 122.008C96.6367 122.193 96.3593 122.378 96.0818 122.47L92.3355 123.719M92.3355 123.719L93.5842 119.973C93.6767 119.695 93.8155 119.464 94.0467 119.233L97.8855 115.394" stroke="black" stroke-width="1.15625" stroke-miterlimit="10" stroke-linecap="round" stroke-linejoin="round"/>
</svg>
