<svg width="137" height="137" viewBox="0 0 137 137" fill="none" xmlns="http://www.w3.org/2000/svg">
<path d="M113.593 73.2953C115.049 73.2953 116.205 72.0965 116.162 70.6409C116.119 69.2281 114.878 68.1578 113.508 68.1578H112.352C111.795 68.1578 111.239 67.9437 110.853 67.5156L110.211 66.8734C109.441 66.1028 109.226 64.904 109.74 63.9193L110.425 62.5493C110.725 61.9928 110.297 61.3078 109.655 61.3078H105.459M119.972 68.1578C119.972 68.1578 118.26 70.7265 118.26 74.1515C118.26 78.2615 121.471 80.7447 124.553 81.5581C125.324 81.7722 125.923 80.9159 125.495 80.2737C122.541 75.8212 125.966 72.0965 125.966 69.014C125.966 66.1884 124.254 63.8765 122.113 63.8765C121.128 63.8765 120.229 64.3475 119.544 65.1609C118.26 60.9653 114.321 57.8828 109.697 57.8828C104.56 57.8828 101.178 60.3659 99.4224 65.589L98.138 69.4422C97.2818 72.0109 98.5662 72.439 99.4224 72.439H100.279C100.75 72.439 101.135 72.8243 101.135 73.2953V76.6347C101.135 78.7753 102.847 80.5734 104.945 80.5734H107.343C108.627 80.5734 109.697 81.6437 109.697 82.9281C109.697 84.2125 108.627 85.2828 107.343 85.2828H104.046C100.15 85.2828 96.5968 87.4662 94.8415 90.9768L88.334 103.949C87.7346 105.105 86.5787 105.833 85.2515 105.833H59.9493C58.0655 105.833 56.5243 104.292 56.5243 102.408V88.7078C56.5243 86.824 58.0655 85.2828 59.9493 85.2828H80.4993C82.383 85.2828 83.9243 86.824 83.9243 88.7078V102.836M27.4974 57.8828V48.8922C27.4974 48.0787 26.8124 47.4793 25.999 47.6078C25.3568 47.7362 24.9287 48.2928 24.9287 48.935C24.9287 52.3172 27.8827 56.1275 32.5065 56.1703C34.9468 56.2131 36.9162 54.2437 36.9162 51.8462V45.8953C36.9162 44.0115 35.3749 42.4703 33.4912 42.4703H32.6349C30.7512 42.4703 29.2099 44.0115 29.2099 45.8953M33.4912 47.1797C33.4912 47.1797 33.9193 48.464 34.3474 49.7484C34.7755 51.0328 33.9193 51.0328 33.4912 51.0328H33.063M37.9437 42.0422C37.0018 38.3603 33.6196 35.6203 29.638 35.6203C24.9287 35.6203 21.0755 39.4734 21.0755 44.1828C21.0755 45.9381 21.5893 47.5222 22.4883 48.8922M17.308 70.3412C13.0268 65.7603 10.3724 59.5953 10.3724 52.7881C10.3724 38.6172 21.889 27.1006 36.0599 27.1006C50.2308 27.1006 61.7474 38.6172 61.7474 52.7881M49.7599 68.1578H45.4787C44.5368 68.1578 43.7662 67.3872 43.7662 66.4453V59.5953C43.7662 58.6534 44.5368 57.8828 45.4787 57.8828H48.0474C48.9893 57.8828 49.7599 58.6534 49.7599 59.5953V63.4484M49.7599 68.1578H51.4724C52.4571 68.1578 53.1849 67.43 53.1849 66.4453V65.1609C53.1849 64.219 52.4143 63.4484 51.4724 63.4484H49.7599M49.7599 68.1578C48.818 68.1578 48.0474 67.3872 48.0474 66.4453V65.1609C48.0474 64.219 48.818 63.4484 49.7599 63.4484M36.0599 57.8828C40.3412 57.8828 40.3412 64.7328 43.7662 64.7328M61.7474 52.7453C61.7474 66.1456 52.4999 67.9865 60.3346 76.9343C61.1052 77.8334 60.7627 79.2462 59.6496 79.6743C58.879 79.974 57.8515 80.1881 56.6099 80.1881C50.188 80.1881 47.1912 75.9497 47.1912 75.9497C43.809 77.5765 40.0415 78.4756 36.0599 78.4756C24.9287 78.4756 19.363 72.0537 19.363 66.06C19.363 61.5647 23.0021 57.9256 27.4974 57.9256" stroke="black" stroke-width="1.07031" stroke-miterlimit="10" stroke-linecap="round" stroke-linejoin="round"/>
<path d="M103.276 67.7291C103.748 67.7291 104.132 67.3457 104.132 66.8729C104.132 66.4 103.748 66.0166 103.276 66.0166C102.803 66.0166 102.419 66.4 102.419 66.8729C102.419 67.3457 102.803 67.7291 103.276 67.7291Z" fill="black"/>
</svg>
