<svg width="611" height="611" viewBox="0 0 611 611" fill="none" xmlns="http://www.w3.org/2000/svg">
<path d="M181.49 300.407V174.133C181.49 162.932 190.655 153.767 201.857 153.767C213.058 153.767 222.223 162.932 222.223 174.133V300.407M181.49 347.25V287.168C181.49 270.366 167.742 256.618 150.94 256.618C145.339 256.618 140.757 261.201 140.757 266.802V372.708C140.757 423.625 166.215 443.992 166.215 443.992M166.215 443.992L44.0149 505.092M166.215 443.992C257.865 398.167 237.498 515.275 166.215 443.992ZM262.957 300.407V174.133C262.957 162.932 272.122 153.767 283.323 153.767C294.525 153.767 303.69 162.932 303.69 174.133V300.407M222.223 285.132V158.858C222.223 147.657 231.388 138.492 242.59 138.492C253.792 138.492 262.957 147.657 262.957 158.858V285.132M303.69 500L446.257 571.283M171.307 571.283L262.957 525.458C313.873 500 344.423 454.175 344.423 392.566V194.5C344.423 183.298 353.588 174.133 364.79 174.133C375.992 174.133 385.157 183.298 385.157 194.5V388.493C385.157 403.768 393.812 418.024 407.56 425.153L568.457 505.601M349.515 102.85L390.248 62.1167M268.048 102.85L227.315 62.1167M308.782 97.7583V41.75" stroke="black" stroke-width="2.5" stroke-miterlimit="10" stroke-linecap="round" stroke-linejoin="round"/>
</svg>
